<svg width="100" height="100" viewBox="0 0 44 43" fill="none" xmlns="http://www.w3.org/2000/svg">
<path d="M22 11.5C30.284 11.4341 37 -10.5 43.5 7.5C43.5659 15.784 36.284 41.9341 28 42C19.716 42.0659 0.565903 22.784 0.499992 14.5C2.49952 -8.61934 13.716 11.5659 22 11.5Z" fill="#C471ED"/>
<path d="M21.9381 15.4007C28.4323 15.349 33.7025 -1.18684 38.7938 12.3803C38.8435 18.6249 33.1287 38.339 26.6345 38.3907C20.1403 38.4423 5.13241 23.9119 5.08273 17.6673C6.65578 0.239105 15.444 15.4524 21.9381 15.4007Z" fill="#EC38BC"/>
<path d="M21.0467 21.0189C24.1318 20.9943 26.6349 13.0829 29.0539 19.5742C29.0777 22.5619 26.3634 31.994 23.2783 32.0185C20.1933 32.043 13.0633 25.0906 13.0396 22.1029C13.7864 13.7644 17.9616 21.0434 21.0467 21.0189Z" fill="#86DBEE" fill-opacity="0.79"/>
</svg>