<svg width="500" height="500" viewBox="0 0 174 173" fill="none" xmlns="http://www.w3.org/2000/svg">
<path d="M46.7958 65.0314C43.3763 55.9904 51.5029 46.8233 60.8887 49.1342L124.93 64.9022C133.695 67.0604 137.029 77.7597 131.041 84.5146L90.3317 130.436C84.3435 137.191 73.3216 135.164 70.1281 126.721L46.7958 65.0314Z" fill="#9456D5"/>
<path d="M72.4003 84.7314C70.0119 78.7387 75.3346 72.5288 81.6221 73.9725L100.372 78.2776C106.234 79.6236 108.57 86.7143 104.656 91.281L93.0284 104.847C89.1142 109.413 81.7496 108.189 79.5228 102.602L72.4003 84.7314Z" fill="#2B3947" fill-opacity="0.66"/>
<path d="M96.5459 143.073C93.5246 147.031 87.2756 145.798 85.9826 140.99L82.1463 126.724C80.9923 122.432 84.7412 118.419 89.1011 119.279L101.902 121.803C106.262 122.663 108.207 127.798 105.51 131.33L96.5459 143.073Z" fill="#D871D3"/>
<circle cx="121.5" cy="98.5" r="8.5" fill="#9FC9F3"/>
<circle cx="106.267" cy="107" r="3" fill="#EEEEEE"/>
</svg>